# xmcd
#
# Track frame offsets: 
#        150
#        14427
#        28822
#        42367
#        55032
#        65732
#        79135
#        91855
#        104537
#        118550
#        131575
#        146140
#        157252
#        170572
#        189520
#        208065
#        226725
#        241165
#        257685
#        274305
#
# Disc length: 3906 seconds
#
# Revision: 4
# Processed by: cddbd v1.5.2PL0 Copyright (c) Steve Scherf et al.
# Submitted via: ExactAudioCopy v0.99pb5
#
DISCID=220f4014
DTITLE=Don Williams - 20 Greatest Hits
DYEAR=1987
DGENRE=Country
TTITLE0=Come Early Morning
TTITLE1=Amanda
TTITLE2=I Wouldn't Want To Live
TTITLE3=You're My Best Friend
TTITLE4=Love Me Tonight
TTITLE5=Say It Again
TTITLE6=She Never Knew Me
TTITLE7=Some Broken Hearts Never Mend
TTITLE8=I'm Just A Country Boy
TTITLE9=Rake And Ramblin' Man
TTITLE10=Tulsa Time
TTITLE11=It Must Be Love
TTITLE12=Love Me Over Again
TTITLE13=Good Ole Boys Like Me
TTITLE14=I Believe In You
TTITLE15=Lord, I Hope This Day Is Good
TTITLE16=If Hollywood Don't Need You
TTITLE17=Love Is On A Roll
TTITLE18=That's The Thing About Love
TTITLE19=Maggie's Dream
EXTD=
EXTT0=
EXTT1=
EXTT2=
EXTT3=
EXTT4=
EXTT5=
EXTT6=
EXTT7=
EXTT8=
EXTT9=
EXTT10=
EXTT11=
EXTT12=
EXTT13=
EXTT14=
EXTT15=
EXTT16=
EXTT17=
EXTT18=
EXTT19=
PLAYORDER=
